<?xml version="1.0" encoding="UTF-8" standalone="no"?>
<!-- Uploaded to: SVG Repo, www.svgrepo.com, Generator: SVG Repo Mixer Tools -->

<svg
   width="800px"
   height="800px"
   viewBox="0 0 32 32"
   version="1.1"
   id="svg54"
   sodipodi:docname="jenkins-logo.svg"
   inkscape:version="1.4.3 (0d15f75, 2025-12-25)"
   xmlns:inkscape="http://www.inkscape.org/namespaces/inkscape"
   xmlns:sodipodi="http://sodipodi.sourceforge.net/DTD/sodipodi-0.dtd"
   xmlns="http://www.w3.org/2000/svg"
   xmlns:svg="http://www.w3.org/2000/svg">
  <defs
     id="defs54" />
  <sodipodi:namedview
     id="namedview54"
     pagecolor="#ffffff"
     bordercolor="#000000"
     borderopacity="0.25"
     inkscape:showpageshadow="2"
     inkscape:pageopacity="0.0"
     inkscape:pagecheckerboard="0"
     inkscape:deskcolor="#d1d1d1"
     inkscape:zoom="0.8725426"
     inkscape:cx="421.18288"
     inkscape:cy="364.45212"
     inkscape:window-width="1550"
     inkscape:window-height="1137"
     inkscape:window-x="0"
     inkscape:window-y="40"
     inkscape:window-maximized="0"
     inkscape:current-layer="svg54" />
  <title
     id="title1">file_type_jenkins</title>
  <path
     d="m 19.890644,26.465923 c -0.07691,0 -0.153813,0 -0.226195,-0.01131 0.07351,0.0068 0.149289,0.01131 0.226195,0.01131 z"
     style="fill:none;stroke-width:1.13097"
     id="path1" />
  <path
     d="m 19.218844,26.36866 a 2.182784,2.182784 0 0 0 0.443343,0.08596 2.182784,2.182784 0 0 1 -0.443343,-0.08596 z"
     style="fill:none;stroke-width:1.13097"
     id="path2" />
  <path
     d="m 20.544349,29.110146 c -0.02375,-0.136848 -0.04864,-0.249947 -0.07238,-0.350603 v 0 c 0.02375,0.10066 0.04863,0.213755 0.07238,0.350603 z"
     style="fill:none;stroke-width:1.13097"
     id="path3" />
  <path
     d="M 6.2318444,14.071555 A 0.94097221,0.94097221 0 0 1 6.4173246,13.942624 0.65709718,0.65709718 0 0 0 6.2318444,14.071555 Z"
     style="fill:#f0d6b7;stroke-width:1.13097"
     id="path4" />
  <path
     d="m 9.5976294,18.639568 c 0.067856,0.476141 0.271434,4.709385 3.1282806,7.068601 a 17.490547,17.490547 0 0 0 1.751882,0.183218 c 0.316673,-0.678586 1.483841,-0.626561 2.244987,-0.45239 a 7.5187299,7.5187299 0 0 1 -2.461004,-2.010876 5.0509398,5.0509398 0 0 1 -1.664796,-3.003873 c 1.524555,2.114926 2.784463,3.958417 5.556486,4.892604 2.09796,0.703467 4.547655,-0.322329 6.159297,-1.454436 A 7.0776491,7.0776491 0 0 0 25.856543,21.962376 16.107364,16.107364 0 0 0 28.282488,12.21223 10.820049,10.820049 0 0 0 27.717,8.3148861 C 27.204667,7.2879597 25.473143,6.369607 24.459788,7.2970075 a 1.2101446,1.2101446 0 0 1 -0.0181,-0.2782201 c -0.161726,0.1515508 -0.26012,0.2623864 -0.26012,0.2623864 A 1.3673503,1.3673503 0 0 1 24.043589,6.7303884 1.7541441,1.7541441 0 0 1 25.740053,5.0339241 9.8100876,9.8100876 0 0 0 24.067339,3.2662083 11.863941,11.863941 0 0 0 17.228326,3.0151316 9.1156682,9.1156682 0 0 0 10.470743,9.122403 a 15.9298,15.9298 0 0 0 -0.438819,2.5594 c -0.035061,0.999782 0.470486,1.871765 0.508939,2.959764 -0.270303,0.445605 -1.0959155,0.501022 -1.6670586,0.470486 -0.041844,-0.211492 -0.092738,-0.42864 -0.1538127,-0.640132 A 5.8335753,5.8335753 0 0 0 7.2893072,13.906433 1.9441482,1.9441482 0 0 1 8.4304621,16.211362 C 8.008608,15.970464 7.9079512,14.91074 7.4125836,14.880203 6.7045924,14.837226 6.8335238,16.25547 6.8369167,17.085607 a 2.5910665,2.5910665 0 0 1 -0.2148855,-2.50285 c -0.3211973,-0.157206 -0.5021534,0.06899 -0.6785857,0.245421 -0.2510767,1.171691 -0.618644,2.118318 0.07012,3.302451 a 1.9611128,1.9611128 0 0 0 1.5992003,0.678585 c 0.6412636,-0.06333 0.7984693,-0.705729 1.4974128,-0.698943 a 0.5801908,0.5801908 0 0 1 0.4874508,0.529297 z m 7.2936656,2.20201 -0.339293,-0.06899 c 0,0 -0.355126,-1.244073 -0.184349,-1.477054 0.09048,-0.121015 0.588108,-0.303102 1.284789,0.03167 -0.0045,0.0012 -0.830137,0.13911 -0.761147,1.514377 z m 6.453351,1.51664 a 5.9602446,5.9602446 0 0 1 -3.874725,-0.01583 5.3008855,5.3008855 0 0 1 -1.451043,-1.613903 c -0.175301,-0.226195 -1.048415,-0.800731 -0.01357,-0.801863 v 0 c 0.810909,2.035758 3.596503,1.800515 5.945541,1.745097 a 1.2565145,1.2565145 0 0 1 -0.606202,0.687634 z m 0.339293,-1.809562 a 4.5420004,4.5420004 0 0 1 0,-1.202228 9.6562749,9.6562749 0 0 0 3.347689,-1.340206 v 0 a 3.8735935,3.8735935 0 0 1 -3.34882,2.540172 z m 3.11697,-9.130371 c -0.206969,0.069 -1.549438,0.861804 -1.445387,-0.137979 a 1.524556,1.524556 0 0 1 1.160381,-1.218062 3.4347747,3.4347747 0 0 1 0,-0.4523902 v 0 h 0.08935 a 19.391718,19.391718 0 0 0 1.325504,2.5899352 c -0.358519,0.834661 -2.714343,1.572057 -2.675889,0.07465 0.508939,-0.226195 1.387708,-0.04524 1.838967,-0.329114 -0.106314,-0.290661 -0.226196,-0.565489 -0.339293,-0.855018 z m -5.866374,5.372137 a 0.8131719,0.8131719 0 0 1 0.05202,0.113097 c 0.102917,-0.573404 0.292922,-1.244074 0.619775,-1.145678 a 0.77358773,0.77358773 0 0 1 0.565488,0.721562 7.8127836,7.8127836 0 0 0 -1.072165,0.834661 c 0.07351,0.339293 0.16286,0.678586 0.5915,0.755492 1.25086,0.213754 2.706427,-0.765671 3.606684,-1.107226 0.55757,-0.940971 -0.04863,-1.287051 -0.550786,-1.892123 -1.029189,-1.244074 -2.408979,-2.777678 -2.359216,-4.637002 0.416199,-0.301971 0.45239,0.460307 0.511201,0.599417 a 16.971429,16.971429 0 0 0 2.876072,3.942583 c 0.242029,0.264649 0.641264,0.519118 0.685371,0.694419 0.127802,0.51007 -0.332506,1.120798 -0.27935,1.45896 v 0 a 7.4497403,7.4497403 0 0 1 -5.05094,1.583366 1.4951505,1.4951505 0 0 1 -0.197921,-1.924921 z m 2.214452,2.624996 a 5.5791057,5.5791057 0 0 1 0.08596,1.199966 c -2.048198,0.101788 -4.469619,-0.40489 -5.006832,-1.842361 a 11.63209,11.63209 0 0 0 4.919747,0.639001 z M 18.335552,9.6347353 a 7.8648086,7.8648086 0 0 0 1.104964,2.0685557 c 0.257862,0.251076 0.757753,0.55644 0.510069,1.254253 a 1.5901526,1.5901526 0 0 1 -0.726086,0.603941 c -0.893471,0.263518 -2.975598,0.05429 -2.271,-1.059725 0.738528,0.03393 1.732655,0.479534 2.284572,-0.05655 -0.107443,-0.171909 -0.236374,-0.385663 -0.364174,-0.623168 -0.565489,0.357389 -2.11945,0.373223 -2.11945,-0.541737 0,-0.963592 1.514378,-1.16943 1.514378,-1.16943 l 0.01131,0.02714 a 1.2553836,1.2553836 0 0 1 0.05429,-0.5066777 z M 14.689284,6.3232369 c 1.351518,-0.9217455 2.035758,-0.3958416 2.375051,0.2126236 a 0.64239449,0.64239449 0 0 1 0.309888,0.9364482 C 15.499063,7.035752 14.567139,8.2572063 13.998258,9.5238996 13.852362,9.7885481 13.844446,9.6008055 13.760753,9.3700868 A 0.44334267,0.44334267 0 0 1 13.691758,9.2162741 0.62316789,0.62316789 0 0 0 13.587713,9.079426 C 13.31628,8.8000748 13.174907,7.3558182 14.689284,6.3232369 Z"
     style="fill:#f0d6b7;stroke-width:1.13097"
     id="path5" />
  <path
     d="m 4.9278288,31.110843 h 9.8994342 c -0.04524,-0.152682 -0.08934,-0.303102 -0.133455,-0.445605 A 13.757194,13.757194 0 0 1 14.155463,28.462096 23.839848,23.839848 0 0 1 10.664141,26.590331 2.661187,2.661187 0 0 1 10.392705,26.29967 l -5.9557198,2.661186 c 0,0 0.2137545,0.852757 0.4908436,2.149987 z"
     style="fill:#335061;stroke-width:1.13097"
     id="path6" />
  <path
     d="m 8.490404,5.9126926 a 2.4033244,2.4033244 0 0 1 0.5281661,-0.099526 4.3169362,4.3169362 0 0 0 0.8448385,0.032798 C 10.422111,5.7068547 10.894859,4.453733 11.316713,3.9866398 a 12.817354,12.817354 0 0 1 1.064249,-0.8776372 8.3081512,8.3081512 0 0 0 -3.890558,2.80369 z"
     style="fill:#6d6b6d;stroke-width:1.13097"
     id="path7" />
  <path
     d="m 5.9389216,12.230326 a 2.4282059,2.4282059 0 0 1 3.5569202,1.975816 C 10.280739,14.185784 9.7887643,13.226715 9.647393,12.608072 9.2300627,10.789462 10.198178,8.8306112 9.8645404,7.1103964 5.4921859,7.7641007 5.7387388,11.121969 5.9389216,12.230326 Z"
     style="fill:#6d6b6d;stroke-width:1.13097"
     id="path8" />
  <path
     d="M 12.806209,2.3512485 C 10.747833,2.9348323 8.110396,4.4299828 7.2644257,6.2791289 a 8.3567832,8.3567832 0 0 0 1.2259783,-0.3664363 8.3081512,8.3081512 0 0 1 3.890558,-2.80369 1.8627179,1.8627179 0 0 0 0.179825,-0.1877421 c 0.217148,-0.1051809 0.538345,-0.097264 0.550786,-0.424116 -0.09387,-0.1006569 -0.193397,-0.1775634 -0.305364,-0.145896 z"
     style="fill:#dcd9d8;stroke-width:1.13097"
     id="path9" />
  <path
     d="M 6.3042269,8.1576804 C 5.3994459,9.1585944 5.5849261,11.032622 5.6957617,12.366043 A 2.6249958,2.6249958 0 0 1 5.9423145,12.230326 C 5.7387388,11.1231 5.4967099,7.7641007 9.8679327,7.1103964 A 3.1780432,3.1780432 0 0 0 9.7073344,6.5528251 4.9864741,4.9864741 0 0 0 6.3042269,8.1576804 Z"
     style="fill:#dcd9d8;stroke-width:1.13097"
     id="path10" />
  <path
     d="M 9.5976294,18.639568 A 0.5801908,0.5801908 0 0 0 9.1226192,18.110271 c 0.3788774,0.755492 -0.5835833,0.992997 -0.6785853,1.532473 a 4.3395558,4.3395558 0 0 0 0.141372,0.940972 12.837711,12.837711 0 0 0 1.6342611,3.805735 3.5976353,3.5976353 0 0 0 2.510767,1.318718 C 9.8690634,23.350084 9.6654882,19.115709 9.5976294,18.639568 Z"
     style="fill:#f7e4cd;stroke-width:1.13097"
     id="path11" />
  <path
     d="M 22.166168,16.473748 A 0.77358773,0.77358773 0 0 0 21.60068,15.752186 c -0.326852,-0.09274 -0.516855,0.572274 -0.619775,1.145678 a 2.6871995,2.6871995 0 0 1 0.113097,0.410545 7.8127836,7.8127836 0 0 1 1.072166,-0.834661 z"
     style="fill:#f7e4cd;stroke-width:1.13097"
     id="path12" />
  <path
     d="m 25.35439,11.278043 c -0.104046,0.999784 1.244075,0.206969 1.445388,0.13798 l -0.04864,-0.32346 a 3.658708,3.658708 0 0 1 -0.236369,-1.032581 1.524556,1.524556 0 0 0 -1.160382,1.218061 z"
     style="fill:#f7e4cd;stroke-width:1.13097"
     id="path13" />
  <path
     d="m 16.753316,11.278043 c 0,0.91496 1.550568,0.899127 2.11945,0.541739 a 4.5838466,4.5838466 0 0 1 -0.593762,-1.684024 l -0.01131,-0.02714 c 0,0 -1.514377,0.205838 -1.514377,1.169429 z"
     style="fill:#f7e4cd;stroke-width:1.13097"
     id="path14" />
  <path
     d="m 5.9558863,14.83044 a 0.90478097,0.90478097 0 0 1 -0.141372,0.123277 1.3809219,1.3809219 0 0 1 0.4184611,-0.883293 0.65709718,0.65709718 0 0 1 0.1843492,-0.1278 1.1072257,1.1072257 0 0 1 0.8844234,-0.03619 5.8335753,5.8335753 0 0 1 1.4306852,0.565488 C 8.5141545,13.720953 8.1398013,13.043498 7.3662136,12.958675 A 2.3004057,2.3004057 0 0 0 4.8780659,15.17878 4.3633063,4.3633063 0 0 0 6.0260067,18.127235 C 5.3361113,16.948759 5.7048095,16.002132 5.9558863,14.83044 Z"
     style="fill:#f7e4cd;stroke-width:1.13097"
     id="path15" />
  <path
     d="M 17.235112,3.0207864 A 11.863941,11.863941 0 0 1 24.074126,3.2718632 4.6675388,4.6675388 0 0 0 23.519947,2.899772 C 21.383533,1.6941514 17.767802,0.78823939 15.490016,1.9203466 13.656703,2.8341754 11.177604,4.3474215 10.332764,6.2644262 a 4.6471813,4.6471813 0 0 1 0.13911,2.8636318 9.1156682,9.1156682 0 0 1 6.763238,-6.1072716 z"
     style="fill:#f7e4cd;stroke-width:1.13097"
     id="path16" />
  <path
     d="m 24.046981,6.7360433 a 1.3673503,1.3673503 0 0 0 0.137979,0.5507854 c 0,0 0.09839,-0.1130977 0.260126,-0.2623865 0.03506,-0.8301365 0.978293,-1.3028846 2.071948,-0.9794253 C 26.265957,5.7215576 26.011488,5.3788718 25.746839,5.039579 a 1.7541441,1.7541441 0 0 0 -1.699858,1.6964643 z"
     style="fill:#f7e4cd;stroke-width:1.13097"
     id="path17" />
  <path
     d="m 13.759623,9.3712179 c 0.08369,0.2261952 0.09274,0.4184611 0.237504,0.1538127 A 0.39357972,0.39357972 0 0 1 13.759623,9.3712179 Z"
     style="fill:#f7e4cd;stroke-width:1.13097"
     id="path18" />
  <path
     d="m 13.691764,9.2174051 a 1.6806307,1.6806307 0 0 1 0.128931,-0.85728 3.184829,3.184829 0 0 1 2.793511,-1.9848632 1.2994916,1.2994916 0 0 1 0.45239,0.1617295 C 16.727303,5.9285262 16.048718,5.4060152 14.691547,6.3243679 13.178301,7.3569493 13.315149,8.8012058 13.591107,9.0771641 a 0.62316789,0.62316789 0 0 1 0.10066,0.140241 z"
     style="fill:#f7e4cd;stroke-width:1.13097"
     id="path19" />
  <path
     d="M 4.4369852,28.960856 10.392705,26.29967 C 9.9561492,25.792993 9.1723828,24.829401 9.0355345,24.878033 a 27.232777,27.232777 0 0 0 -6.3447766,3.941452 22.886434,22.886434 0 0 1 0.9160907,2.291358 H 4.9278288 C 4.6507397,29.813613 4.4369852,28.960856 4.4369852,28.960856 Z"
     style="fill:#49728b;stroke-width:1.13097"
     id="path20" />
  <path
     d="m 28.358263,31.141378 a 23.565021,23.565021 0 0 0 0.619775,-2.327548 c 0.04071,-0.204707 0.119884,-0.537214 0.176432,-0.855018 l -3.263997,-2.424813 a 5.7939911,5.7939911 0 0 1 0.147027,4.410807 c 0.113098,0.420723 0.513464,0.582452 0.678586,0.96133 -0.03846,0.06786 -0.07691,0.134586 -0.113098,0.202444 h 1.669321 a 0.16851545,0.16851545 0 0 1 0.08596,0.03279 z"
     style="fill:#335061;stroke-width:1.13097"
     id="path21" />
  <path
     d="m 25.464095,29.746885 a 1.2225853,1.2225853 0 0 0 0.194528,-0.430901 1.2225853,1.2225853 0 0 1 -0.194528,0.430901 z"
     style="fill:#335061;stroke-width:1.13097"
     id="path22" />
  <path
     d="m 24.53217,25.078216 a 1.0721655,1.0721655 0 0 1 0.581322,-0.119884 L 24.84432,24.758149 a 1.6478324,1.6478324 0 0 0 -0.31215,0.320067 z"
     style="fill:#335061;stroke-width:1.13097"
     id="path23" />
  <path
     d="M 29.213281,27.264393 C 29.129593,26.657058 28.3085,26.20693 27.887777,25.832576 27.114189,25.139288 26.630132,24.528561 25.826008,23.880512 a 4.9661166,4.9661166 0 0 1 -0.982819,0.877637 l 0.269173,0.200183 a 1.0540698,1.0540698 0 0 1 0.775849,0.576798 l 3.261736,2.423682 a 2.6453533,2.6453533 0 0 0 0.06333,-0.694419 z"
     style="fill:#49728b;stroke-width:1.13097"
     id="path24" />
  <path
     d="m 21.088348,31.020365 a 0.49536758,0.49536758 0 0 0 0.01022,0.08596 h 0.541738 a 0.37661508,0.37661508 0 0 1 0.75323,0 h 0.875375 v -0.03393 c -0.309929,-0.162859 -0.987384,-0.514593 -1.357213,-0.670667 -0.479535,-0.201314 -0.823351,0.618644 -0.823351,0.618644 z"
     style="fill:#ffffff;stroke-width:1.13097"
     id="path25" />
  <path
     d="m 21.088348,31.020365 c 0,0 0.339292,-0.825613 0.825612,-0.619775 0.364175,0.156074 1.041629,0.507807 1.357172,0.670668 0.01131,-0.248815 0.02261,-0.497629 0.03846,-0.746444 -0.698943,0.04411 -1.086867,-0.632215 -1.57658,-0.68424 -0.42751,-0.04637 -0.791683,0.491974 -1.345862,0.258993 -0.1278,0.140241 -0.24316,0.292923 -0.373223,0.430902 a 7.1398528,7.1398528 0 0 1 0.553048,0.774719 h 0.538345 a 0.49536758,0.49536758 0 0 1 -0.01696,-0.08483 z"
     style="fill:#dcd9d8;stroke-width:1.13097"
     id="path26" />
  <path
     d="m 14.233501,26.461399 a 7.6205177,7.6205177 0 0 1 -2.566185,-0.45239 0.31893529,0.31893529 0 0 0 0.01923,0.476141 8.6598848,8.6598848 0 0 0 2.420289,0.653704 1.9769464,1.9769464 0 0 0 0.126669,-0.677455 z"
     style="fill:#ffffff;stroke-width:1.13097"
     id="path27" />
  <path
     d="m 14.059331,27.479279 a 1.3944937,1.3944937 0 0 1 0.04637,-0.339294 8.6598848,8.6598848 0 0 1 -2.420289,-0.653704 4.7919462,4.7919462 0 0 0 2.373918,0.992998 z"
     style="fill:#dcd9d8;stroke-width:1.13097"
     id="path28" />
  <path
     d="m 25.658623,29.315984 a 3.3510825,3.3510825 0 0 0 0.08256,-0.98395 7.9812991,7.9812991 0 0 0 -0.226195,-1.558485 3.3929286,3.3929286 0 0 0 -1.141155,0.05542 c -0.339293,0.069 -0.688765,0.137979 -0.756624,0.550785 -0.06786,0.412807 0.137979,0.619775 -0.06899,0.963592 -0.206969,0.343817 -0.550786,0.137979 -0.894603,0.339293 -0.234111,0.14024 -0.08596,0.503284 0.03279,0.721562 a 13.727789,13.727789 0 0 0 2.781071,0.339293 1.2225853,1.2225853 0 0 0 0.191135,-0.427508 z"
     style="fill:#d33833;stroke-width:1.13097"
     id="path29" />
  <path
     d="m 15.422157,31.041853 c 0.01809,0.04864 0.03732,0.09952 0.05315,0.144765 0.01583,0.04524 0.03279,0.105185 0.0475,0.157206 L 15.512585,31.2115 Z"
     style="fill:#d33833;stroke-width:1.13097"
     id="path30" />
  <path
     d="m 19.947193,29.57837 q 0.01131,-0.298578 0.02375,-0.596024 a 1.4804478,1.4804478 0 0 1 -1.085737,-0.08369 c -1.059724,-0.577929 -0.05655,-0.407152 -0.432033,-1.173954 a 3.659839,3.659839 0 0 0 -1.384314,-0.412806 c -1.38884,0 -1.922659,-0.279351 -1.773371,1.322111 0.07803,0.859542 0.148158,1.717952 0.216017,2.578626 0.113097,0.212623 0.214885,0.403758 0.296316,0.565488 a 5.467139,5.467139 0 0 0 2.073078,-0.632216 23.758417,23.758417 0 0 0 2.066294,-1.567533 z"
     style="fill:#d33833;stroke-width:1.13097"
     id="path31" />
  <path
     d="m 20.471966,28.758412 c 0.02375,0.10066 0.04863,0.213755 0.07238,0.350602 v 0 a 0.79168335,0.79168335 0 1 0 0.484057,-1.481578 1.0778204,1.0778204 0 0 1 -0.55644,1.130976 z"
     style="fill:#d33833;stroke-width:1.13097"
     id="path32" />
  <path
     d="m 22.650227,28.687161 c 0.339292,-0.206969 0.688764,0 0.894602,-0.339293 0.205836,-0.339293 0,-0.550785 0.069,-0.963592 0.06899,-0.412806 0.412806,-0.481795 0.756623,-0.550786 a 3.3929286,3.3929286 0 0 1 1.141154,-0.05542 1.2723482,1.2723482 0 0 0 -0.393579,-0.737397 c -0.84484,-0.493105 -2.325288,0.933056 -3.014052,1.236157 l -0.06447,0.02601 a 1.9158737,1.9158737 0 0 1 0.197921,0.631085 1.6681899,1.6681899 0 0 1 0.465963,-0.0475 1.9916491,1.9916491 0 0 1 0.312149,0.03732 c 0.05089,0.01022 0.10066,0.02263 0.150419,0.03619 a 1.6546182,1.6546182 0 0 1 0.274828,0.104046 4.7602789,4.7602789 0 0 0 -0.85615,0.113097 0.79168335,0.79168335 0 0 0 -0.226195,0.107444 9.746753,9.746753 0 0 0 -0.03959,1.017878 q 0.178695,0.05089 0.364175,0.09501 c -0.118754,-0.206968 -0.266911,-0.570012 -0.03279,-0.710252 z"
     style="fill:#ef3d3a;stroke-width:1.13097"
     id="path33" />
  <path
     d="m 15.522814,31.342693 c 0.05768,0.206969 0.107443,0.39358 0.286137,0.435426 -0.08143,-0.162861 -0.184349,-0.353996 -0.296316,-0.565488 z"
     style="fill:#ef3d3a;stroke-width:1.13097"
     id="path34" />
  <path
     d="m 15.295488,28.632873 c -0.145896,-1.601461 0.384531,-1.32211 1.773371,-1.32211 a 3.659839,3.659839 0 0 1 1.384314,0.412806 c 0.375484,0.766802 -0.627691,0.596024 0.432033,1.173953 a 1.4804478,1.4804478 0 0 0 1.085737,0.08369 v -0.07125 a 3.4370367,3.4370367 0 0 0 -1.035974,-0.327983 3.9584168,3.9584168 0 0 0 -0.419592,-0.04072 1.758668,1.758668 0 0 1 0.329114,-0.119883 3.7152568,3.7152568 0 0 0 1.024665,-0.317805 c 0,-0.08934 0.0068,-0.178693 0.01022,-0.26691 a 2.1296282,2.1296282 0 0 1 -0.226195,-0.03054 1.7699777,1.7699777 0 0 1 -0.200183,-0.04977 1.7925973,1.7925973 0 0 1 -0.332507,-0.143634 c -0.201312,-0.11309 -0.374352,-0.244283 -0.593762,-0.364167 a 10.265871,10.265871 0 0 0 -2.72339,-0.996389 c -1.041629,-0.199053 -1.050677,1.249728 -1.006569,2.31737 0,0.113097 0.0091,0.217147 0.0147,0.316672 a 7.4474783,7.4474783 0 0 0 0.615252,2.148855 l 0.08934,0.169647 c -0.07125,-0.852756 -0.142502,-1.712298 -0.22054,-2.57184 z"
     style="fill:#ef3d3a;stroke-width:1.13097"
     id="path35" />
  <path
     d="m 21.029537,27.627436 a 1.141155,1.141155 0 0 0 -0.658228,0.226195 1.9226596,1.9226596 0 0 0 0.0079,0.465962 c 0.01244,0.08935 0.03167,0.175301 0.05429,0.269172 l 0.03506,0.148158 v 0.01923 0 a 1.0778204,1.0778204 0 0 0 0.560964,-1.128713 z"
     style="fill:#ef3d3a;stroke-width:1.13097"
     id="path36" />
  <path
     d="m 13.820695,8.3601251 a 1.6806307,1.6806307 0 0 0 -0.128931,0.85728 0.44334267,0.44334267 0 0 0 0.069,0.1538128 0.39357972,0.39357972 0 0 0 0.237505,0.1538127 C 14.563747,8.2583373 15.499063,7.036883 17.374223,7.4734398 a 0.64239449,0.64239449 0 0 0 -0.309888,-0.9364484 1.2994916,1.2994916 0 0 0 -0.45239,-0.1617295 3.184829,3.184829 0 0 0 -2.79125,1.9848632 z"
     style="fill:#231f20;stroke-width:1.13097"
     id="path37" />
  <path
     d="m 25.250341,12.276696 c -0.03619,1.497412 2.31737,0.760016 2.675889,-0.07465 A 19.391718,19.391718 0 0 1 26.600726,9.6121158 h -0.08934 v 0 a 3.4347747,3.4347747 0 0 0 0,0.4523902 3.658708,3.658708 0 0 0 0.236375,1.032581 c 0.107442,0.289531 0.23185,0.565489 0.339292,0.855019 -0.448997,0.27935 -1.330027,0.101789 -1.836705,0.32459 z"
     style="fill:#231f20;stroke-width:1.13097"
     id="path38" />
  <path
     d="m 19.235809,12.441818 c -0.551917,0.536083 -1.546045,0.09048 -2.284572,0.05655 -0.704598,1.114011 1.377529,1.323242 2.271,1.059725 a 1.5901526,1.5901526 0 0 0 0.726087,-0.603942 c 0.247684,-0.697812 -0.252208,-1.003176 -0.51007,-1.254252 a 7.8648086,7.8648086 0 0 1 -1.104964,-2.0685557 1.2553836,1.2553836 0 0 0 -0.05542,0.5032847 4.5838466,4.5838466 0 0 0 0.593763,1.684023 c 0.128931,0.237505 0.256731,0.45126 0.364173,0.623168 z"
     style="fill:#231f20;stroke-width:1.13097"
     id="path39" />
  <path
     d="m 21.12567,18.709688 a 7.4497403,7.4497403 0 0 0 5.05094,-1.583367 v 0 c -0.05315,-0.339292 0.407152,-0.950019 0.279351,-1.458958 -0.04411,-0.175301 -0.443342,-0.429772 -0.685372,-0.69442 a 16.971429,16.971429 0 0 1 -2.876072,-3.942584 c -0.05994,-0.139109 -0.09614,-0.90478 -0.511201,-0.599416 -0.04977,1.857062 1.330027,3.392928 2.359216,4.637002 0.502154,0.605073 1.108356,0.951151 0.550786,1.892123 -0.904781,0.339293 -2.355824,1.322112 -3.606684,1.107226 -0.42864,-0.07351 -0.517986,-0.412806 -0.5915,-0.755493 a 2.6871995,2.6871995 0 0 0 -0.113098,-0.410543 0.8131719,0.8131719 0 0 0 -0.05202,-0.113099 1.4951505,1.4951505 0 0 0 0.195659,1.921529 z"
     style="fill:#231f20;stroke-width:1.13097"
     id="path40" />
  <path
     d="m 6.4173246,13.942624 a 0.94097221,0.94097221 0 0 0 -0.1798253,0.125538 1.3809219,1.3809219 0 0 0 -0.4184612,0.883292 0.90478097,0.90478097 0 0 0 0.141372,-0.123276 C 6.1334495,14.651746 6.3144057,14.42442 6.6389958,14.582757 a 2.5910665,2.5910665 0 0 0 0.2148855,2.50285 c 0,-0.829006 -0.1323242,-2.24725 0.5756669,-2.205404 0.4953676,0.03054 0.5960245,1.090261 1.0178786,1.331159 A 1.9441482,1.9441482 0 0 0 7.297224,13.908694 1.1072257,1.1072257 0 0 0 6.4173246,13.942627 Z"
     style="fill:#231f20;stroke-width:1.13097"
     id="path41" />
  <path
     d="m 23.685069,19.343035 a 4.5420004,4.5420004 0 0 0 0,1.202227 3.8735935,3.8735935 0 0 0 3.349952,-2.543564 v 0 a 9.6562749,9.6562749 0 0 1 -3.349952,1.341337 z"
     style="fill:#231f20;stroke-width:1.13097"
     id="path42" />
  <path
     d="m 23.234941,20.615384 a 5.5791057,5.5791057 0 0 0 -0.08708,-1.205621 11.63209,11.63209 0 0 1 -4.919747,-0.635609 c 0.537213,1.438601 2.958634,1.945279 5.006832,1.84123 z"
     style="fill:#231f20;stroke-width:1.13097"
     id="path43" />
  <path
     d="m 18.005307,19.925488 v 0 c -1.034844,0 -0.16173,0.576798 0.01358,0.801862 a 5.3008855,5.3008855 0 0 0 1.452174,1.615034 5.9602446,5.9602446 0 0 0 3.874725,0.01583 1.2565145,1.2565145 0 0 0 0.606202,-0.688765 c -2.350168,0.05655 -5.135762,0.290661 -5.946672,-1.743965 z"
     style="fill:#231f20;stroke-width:1.13097"
     id="path44" />
  <path
     d="m 26.051071,31.110843 a 1.9328383,1.9328383 0 0 0 -1.178477,-0.851625 1.6206889,1.6206889 0 0 0 -1.038236,0.135716 c -0.0091,0.226196 -0.02036,0.469356 -0.03506,0.714777 z"
     style="fill:#81b0c4;stroke-width:1.13097"
     id="path45" />
  <path
     d="m 22.670583,25.986389 c -0.775849,0.069 -1.688547,0.421854 -2.546958,0.473879 -0.07803,0 -0.156074,0.0068 -0.232981,0.0068 -0.07691,0 -0.153813,0 -0.226195,-0.01131 a 2.182784,2.182784 0 0 1 -0.443342,-0.08596 1.8842063,1.8842063 0 0 1 -0.212625,-0.07916 c 0,0.05881 -0.0803,0.03732 -0.09274,0.08596 0.09614,0.07465 0.188873,0.142503 0.279351,0.202445 0.09048,0.05994 0.179825,0.113098 0.269173,0.16173 a 2.5085053,2.5085053 0 0 0 0.537213,0.214886 3.4517394,3.4517394 0 0 0 0.922876,0.101788 c 0.113098,0 0.239768,0 0.369829,-0.01022 0.469356,-0.342686 0.885555,-0.74192 1.376398,-1.060856 z"
     style="fill:#f0d6b7;stroke-width:1.13097"
     id="path46" />
  <path
     d="m 19.407717,30.848456 -0.396972,0.263518 h 0.596024 q -0.09726,-0.134587 -0.199052,-0.263518 z"
     style="fill:#81b0c4;stroke-width:1.13097"
     id="path47" />
  <path
     d="M 3.116005,31.66389 V 31.285013 A 0.17303936,0.17303936 0 0 1 3.2890444,31.111974 H 3.6091106 A 22.886434,22.886434 0 0 0 2.6930198,28.820616 27.232777,27.232777 0 0 1 9.037796,24.879163 c 0.133456,-0.05315 0.9172224,0.91496 1.357172,1.421638 a 2.661187,2.661187 0 0 0 0.271434,0.290661 23.839848,23.839848 0 0 0 3.491324,1.871765 13.757194,13.757194 0 0 0 0.538345,2.203142 c 0.04411,0.142503 0.08821,0.294053 0.133455,0.445605 h 0.183217 a 0.17303936,0.17303936 0 0 1 0.17304,0.173039 v 0.178694 h 0.157206 a 0.17303936,0.17303936 0 0 1 0.173039,0.173039 v 0.2884 h 1.912481 v -0.2884 a 0.17303936,0.17303936 0 0 1 0.17304,-0.173039 h 0.88216 v -0.178694 a 0.17303936,0.17303936 0 0 1 0.17304,-0.173039 h 0.35852 l 0.396973,-0.263518 q 0.101788,0.128931 0.199051,0.263518 h 0.953412 a 7.1398528,7.1398528 0 0 0 -0.553046,-0.774719 c 0.130062,-0.13798 0.245421,-0.28953 0.373221,-0.430902 0.556441,0.232981 0.918353,-0.305364 1.345863,-0.258994 0.489712,0.05202 0.877637,0.728349 1.576581,0.68424 -0.01583,0.248815 -0.02714,0.49763 -0.03846,0.746446 v 0.03393 h 0.536084 c 0.01357,-0.245422 0.02601,-0.485189 0.03506,-0.714777 a 1.6206889,1.6206889 0 0 1 1.038236,-0.135718 1.9328383,1.9328383 0 0 1 1.178477,0.851626 h 0.544 c 0.03846,-0.06786 0.07803,-0.134586 0.113097,-0.202445 -0.161729,-0.378877 -0.559832,-0.539476 -0.678585,-0.96133 a 5.7939911,5.7939911 0 0 0 -0.147027,-4.410807 1.0540698,1.0540698 0 0 0 -0.77585,-0.576798 1.0721655,1.0721655 0 0 0 -0.581321,0.119883 1.6478324,1.6478324 0 0 1 0.311018,-0.320066 4.9661166,4.9661166 0 0 0 0.982818,-0.877637 c 0.805256,0.64805 1.290444,1.257646 2.062901,1.950934 0.418461,0.375484 1.244073,0.825613 1.325504,1.431815 a 2.6453533,2.6453533 0 0 1 -0.06107,0.694421 c -0.05768,0.317804 -0.135717,0.65031 -0.176432,0.855017 a 23.565021,23.565021 0 0 1 -0.617513,2.325287 0.16964644,0.16964644 0 0 1 0.08143,0.143635 v 0.640132 h 0.416199 c 0.291792,-0.913829 0.577929,-1.849147 0.866329,-2.815 a 7.0199693,7.0199693 0 0 0 0.540606,-2.473445 c -0.08821,-0.697813 -1.176215,-1.430685 -1.749621,-1.983733 -0.317804,-0.306493 -1.801644,-1.432946 -1.887598,-1.8548 -0.08596,-0.421855 0.605072,-1.332291 0.826743,-1.793729 a 13.197362,13.197362 0 0 0 0.702337,-2.022185 c 1.167169,-4.102052 1.285922,-9.7388375 -0.3834,-13.1102775 A 14.182442,14.182442 0 0 0 24.26526,1.994991 C 21.664015,0.02483044 16.842663,-0.19344796 13.703073,0.96240972 A 15.24669,15.24669 0 0 0 11.214926,2.0243964 C 9.1588106,3.2300171 6.9760268,4.037534 6.3664306,6.466871 4.8644941,7.1454567 4.4109728,9.0681163 4.4867482,11.293877 a 7.035803,7.035803 0 0 1 0.1685154,1.387708 c -0.041846,0.2081 -0.3234592,0.473879 -0.380008,0.608465 a 5.9941739,5.9941739 0 0 0 0.6887645,5.193443 3.6473983,3.6473983 0 0 0 2.4349917,1.566403 5.1662994,5.1662994 0 0 0 0.5055465,1.890991 c 0.1922659,0.421855 0.9104355,1.179609 0.6457874,1.717954 a 7.9021308,7.9021308 0 0 1 -1.6908095,1.092522 c -1.3096705,0.786029 -2.2619524,1.266693 -3.467573,2.137545 -0.7826356,0.565489 -2.0052209,0.635609 -1.809562,1.933969 A 20.209414,20.209414 0 0 0 2.49623,31.66502 c 0.028274,0.08821 0.059941,0.175303 0.090478,0.262387 H 3.1182669 Z M 12.560787,2.9212605 A 1.8627179,1.8627179 0 0 1 12.380962,3.1090026 12.817354,12.817354 0 0 0 11.316713,3.9866401 C 10.894859,4.4537333 10.423242,5.706855 9.8634086,5.845965 A 4.3169362,4.3169362 0 0 1 9.0185701,5.8131667 2.4033244,2.4033244 0 0 0 8.490404,5.9126926 8.3567832,8.3567832 0 0 1 7.2644257,6.2802599 C 8.110396,4.4311138 10.747833,2.9359632 12.806209,2.3523795 c 0.113098,-0.031667 0.212624,0.04524 0.306494,0.1458959 -0.01244,0.3245902 -0.334768,0.3178043 -0.551916,0.4229851 z M 9.8634086,7.1058725 C 10.202702,8.8260873 9.2289319,10.786069 9.6462612,12.603548 9.7876335,13.22106 10.279608,14.180129 9.4947111,14.201618 A 2.4282059,2.4282059 0 0 0 5.9377906,12.225801 2.6249958,2.6249958 0 0 0 5.6912378,12.361519 C 5.5781402,11.028098 5.3903981,9.1540704 6.299703,8.1531565 A 4.9864741,4.9864741 0 0 1 9.7028104,6.5483013 3.1780432,3.1780432 0 0 1 9.8634086,7.1103964 Z M 6.0260067,18.127235 A 4.3633063,4.3633063 0 0 1 4.8701491,15.186698 2.3004057,2.3004057 0 0 1 7.3582968,12.966591 c 0.7735876,0.08483 1.1468098,0.762278 1.366219,1.513246 0.061073,0.211493 0.1130983,0.42864 0.1538127,0.640133 0.5711431,0.03054 1.3967555,-0.02488 1.6670585,-0.470486 -0.03845,-1.087999 -0.543999,-1.959982 -0.508939,-2.959765 a 15.9298,15.9298 0 0 1 0.438819,-2.5593991 4.6471813,4.6471813 0 0 0 -0.13911,-2.8636318 c 0.844839,-1.9170046 3.323939,-3.4291198 5.157251,-4.3440796 2.272132,-1.13097619 5.888994,-0.2261952 8.029931,0.9794254 a 4.6675388,4.6675388 0 0 1 0.554179,0.3720912 9.8100876,9.8100876 0 0 1 1.672714,1.7677158 c 0.264648,0.3392929 0.519118,0.6785857 0.770195,1.0054379 -1.093654,-0.3245902 -2.035758,0.1492888 -2.071949,0.9794254 a 1.2101446,1.2101446 0 0 0 0.0181,0.2782201 c 1.017879,-0.9285314 2.744879,-0.010179 3.257211,1.0178787 a 10.820049,10.820049 0 0 1 0.565489,3.897344 16.107364,16.107364 0 0 1 -2.425944,9.750146 7.0776491,7.0776491 0 0 1 -1.543783,1.90004 c -1.611641,1.130976 -4.061335,2.157902 -6.159296,1.454435 -2.772028,-0.930793 -4.031935,-2.777677 -5.556491,-4.892603 a 5.0509398,5.0509398 0 0 0 1.664798,3.003874 7.5187299,7.5187299 0 0 0 2.461004,2.010874 c -0.761147,-0.178693 -1.92266,-0.235242 -2.244988,0.452391 A 17.490547,17.490547 0 0 1 12.732696,25.716086 3.5976353,3.5976353 0 0 1 10.221928,24.397368 12.837711,12.837711 0 0 1 8.5876678,20.591633 4.3395558,4.3395558 0 0 1 8.4462958,19.65066 c 0.099526,-0.540606 1.0619864,-0.776981 0.6785859,-1.532472 -0.6989434,-0.0068 -0.8561491,0.635609 -1.4974126,0.698943 A 1.9611128,1.9611128 0 0 1 6.0260067,18.127235 Z m 14.4425663,10.608558 -0.03506,-0.148158 c -0.02263,-0.09387 -0.04072,-0.179826 -0.05429,-0.269173 a 1.9226596,1.9226596 0 0 1 -0.0079,-0.465962 1.141155,1.141155 0 0 1 0.658228,-0.226195 0.79168335,0.79168335 0 1 1 -0.484057,1.481578 c -0.02375,-0.136848 -0.04863,-0.249945 -0.07238,-0.350602 z m -8.801257,-2.735832 a 7.6205177,7.6205177 0 0 0 2.566185,0.45239 1.9769464,1.9769464 0 0 1 -0.126669,0.678587 1.3944937,1.3944937 0 0 0 -0.04637,0.339292 4.7919462,4.7919462 0 0 1 -2.375049,-0.997521 0.31893529,0.31893529 0 0 1 -0.0181,-0.467093 z m 8.331902,0.948889 a 2.5085053,2.5085053 0 0 1 -0.537214,-0.214885 c -0.08821,-0.0475 -0.177563,-0.101789 -0.269172,-0.16173 -0.09161,-0.05994 -0.183218,-0.1278 -0.279352,-0.202445 0.01244,-0.04863 0.08935,-0.02714 0.09274,-0.08596 a 1.8842063,1.8842063 0 0 0 0.212623,0.07916 2.182784,2.182784 0 0 0 0.443343,0.08596 c 0.07578,0.0068 0.151551,0.01022 0.226195,0.01131 0.07465,0.0012 0.154944,0 0.232982,-0.0068 0.85841,-0.05202 1.771108,-0.40489 2.546958,-0.47388 -0.489714,0.320067 -0.904781,0.719301 -1.377529,1.060856 -0.130063,0.0068 -0.253339,0.01022 -0.369829,0.01022 a 3.4517394,3.4517394 0 0 1 -0.921746,-0.09614 z m -2.117187,4.191398 a 5.467139,5.467139 0 0 1 -2.07308,0.632216 c -0.178694,-0.04184 -0.226195,-0.226196 -0.286137,-0.435427 -0.0147,-0.05202 -0.02941,-0.104046 -0.0475,-0.157205 -0.0181,-0.05315 -0.03393,-0.09614 -0.05315,-0.144765 a 7.4474783,7.4474783 0 0 1 -0.615252,-2.148855 c 0,-0.09952 -0.01022,-0.205838 -0.0147,-0.316672 -0.04411,-1.067642 -0.03506,-2.516423 1.006569,-2.317371 a 10.265871,10.265871 0 0 1 2.72339,0.99639 c 0.21941,0.119884 0.392449,0.254469 0.593763,0.364174 a 1.7925973,1.7925973 0 0 0 0.332507,0.143634 1.7699777,1.7699777 0 0 0 0.200182,0.04977 2.1296282,2.1296282 0 0 0 0.226196,0.03054 c 0,0.08821 -0.0068,0.177563 -0.01022,0.26691 a 3.7152568,3.7152568 0 0 1 -1.024664,0.317805 1.758668,1.758668 0 0 0 -0.329114,0.119883 3.9584168,3.9584168 0 0 1 0.419592,0.04072 3.4370367,3.4370367 0 0 1 1.035974,0.327983 v 0.07125 q -0.01131,0.298579 -0.02375,0.596025 a 23.758417,23.758417 0 0 1 -2.060639,1.568664 z m 4.800994,-1.737179 q -0.18548,-0.04411 -0.364175,-0.09501 a 9.746753,9.746753 0 0 1 0.03959,-1.017878 0.79168335,0.79168335 0 0 1 0.226196,-0.107444 4.7602789,4.7602789 0 0 1 0.856149,-0.113097 1.6546182,1.6546182 0 0 0 -0.274828,-0.104046 c -0.04863,-0.01357 -0.09952,-0.02601 -0.150419,-0.03619 a 1.9916491,1.9916491 0 0 0 -0.312149,-0.04297 1.6681899,1.6681899 0 0 0 -0.460308,0.04297 1.9158737,1.9158737 0 0 0 -0.197921,-0.631086 l 0.06447,-0.02601 c 0.688764,-0.303101 2.169212,-1.729262 3.014052,-1.236156 a 1.2723482,1.2723482 0 0 1 0.393579,0.737396 7.9812991,7.9812991 0 0 1 0.226196,1.558485 3.3510825,3.3510825 0 0 1 -0.08256,0.98395 1.2225853,1.2225853 0 0 1 -0.194527,0.430901 v 0 a 13.727789,13.727789 0 0 1 -2.783333,-0.339292 z"
     style="fill:#231f20;stroke-width:1.13097"
     id="path48" />
  <path
     d="m 17.647918,19.328332 c -0.696681,-0.339293 -1.19431,-0.152681 -1.284788,-0.03167 -0.171909,0.226195 0.184348,1.477055 0.184348,1.477055 l 0.339293,0.06899 c -0.06447,-1.376399 0.761147,-1.514378 0.761147,-1.514378 z"
     style="fill:#f7e4cd;stroke-width:1.13097"
     id="path49" />
  <path
     d="m 22.01688,30.750062 a 0.37774606,0.37774606 0 0 0 -0.376615,0.360781 h 0.75323 A 0.37774606,0.37774606 0 0 0 22.01688,30.750062 Z"
     style="fill:#1d1919;stroke-width:1.13097"
     id="path50" />
  <path
     d="M 15.512635,31.636746 A 0.17303936,0.17303936 0 0 0 15.339596,31.463707 H 15.18239 v 0.200183 a 0.17303936,0.17303936 0 0 1 -0.173039,0.173039 H 3.2890444 A 0.17303936,0.17303936 0 0 1 3.116005,31.66389 v 0.261256 h 12.39663 z"
     style="fill:#231f20;stroke-width:1.13097"
     id="path51" />
  <path
     d="m 28.265523,31.836929 h -9.613298 a 0.17303936,0.17303936 0 0 1 -0.17304,-0.173039 v -0.200183 h -0.88216 a 0.17303936,0.17303936 0 0 0 -0.17304,0.173039 v 0.2884 H 28.436301 V 31.66389 a 0.17303936,0.17303936 0 0 1 -0.170778,0.173039 z"
     style="fill:#231f20;stroke-width:1.13097"
     id="path52" />
  <path
     d="M 3.2890444,31.836929 H 15.012743 a 0.17303936,0.17303936 0 0 0 0.17304,-0.173039 v -0.378877 a 0.17303936,0.17303936 0 0 0 -0.17304,-0.173039 H 3.2890444 A 0.17303936,0.17303936 0 0 0 3.116005,31.285013 v 0.378877 a 0.17303936,0.17303936 0 0 0 0.1730394,0.173039 z"
     style="fill:#231f20;stroke-width:1.13097"
     id="path53" />
  <path
     d="m 18.480317,31.66389 a 0.17303936,0.17303936 0 0 0 0.173039,0.173039 h 9.613298 a 0.17303936,0.17303936 0 0 0 0.173039,-0.173039 v -0.378877 a 0.16964644,0.16964644 0 0 0 -0.08143,-0.143635 0.16851545,0.16851545 0 0 0 -0.09161,-0.02941 h -9.613298 a 0.17303936,0.17303936 0 0 0 -0.173039,0.17304 z"
     style="fill:#231f20;stroke-width:1.13097"
     id="path54" />
</svg>
